<svg width="50" height="50" viewBox="0 0 50 50" fill="none" xmlns="http://www.w3.org/2000/svg">
<path d="M19.7275 35.0392C19.5386 35.0392 19.3484 34.9743 19.1931 34.8421L13.8515 30.2937C13.6673 30.1366 13.5613 29.9072 13.5613 29.6649C13.5613 29.4231 13.6677 29.1937 13.8515 29.0366L19.1931 24.4882C19.54 24.1925 20.061 24.2344 20.3567 24.5813C20.652 24.9286 20.6105 25.4496 20.2632 25.7449L15.66 29.6649L20.2632 33.585C20.6105 33.8807 20.652 34.4017 20.3567 34.7486C20.1932 34.9407 19.961 35.0392 19.7275 35.0392Z" fill="black"/>
<path d="M30.2725 35.0392C30.039 35.0392 29.8068 34.9407 29.6437 34.7486C29.348 34.4017 29.3899 33.8807 29.7368 33.585L34.34 29.6649L29.7368 25.7449C29.3899 25.4496 29.348 24.9286 29.6437 24.5813C29.939 24.2344 30.4605 24.1925 30.8069 24.4882L36.1485 29.0366C36.3327 29.1937 36.4387 29.4231 36.4387 29.6649C36.4387 29.9072 36.3327 30.1366 36.1485 30.2937L30.8069 34.8421C30.6516 34.9743 30.4614 35.0392 30.2725 35.0392V35.0392Z" fill="black"/>
<path d="M23.1091 38.4508C23.0524 38.4508 22.9953 38.4448 22.9377 38.4328C22.4918 38.3388 22.2062 37.9008 22.3002 37.4549L25.6292 21.6488C25.7232 21.2029 26.1608 20.9173 26.6072 21.0113C27.0531 21.1053 27.3387 21.5429 27.2447 21.9892L23.9156 37.7953C23.8336 38.1841 23.4909 38.4508 23.1091 38.4508V38.4508Z" fill="black"/>
<path d="M44.4575 47.062H5.54245C2.48655 47.062 0 44.5759 0 41.5196V8.49057C0 5.43466 2.48655 2.94811 5.54245 2.94811H44.4575C47.5134 2.94811 50 5.43466 50 8.49057V41.5196C50 44.5759 47.5134 47.062 44.4575 47.062ZM5.54245 4.59906C3.39678 4.59906 1.65094 6.34489 1.65094 8.49057V41.5196C1.65094 43.6652 3.39678 45.4111 5.54245 45.4111H44.4575C46.6032 45.4111 48.3491 43.6652 48.3491 41.5196V8.49057C48.3491 6.34489 46.6032 4.59906 44.4575 4.59906H5.54245Z" fill="black"/>
<path d="M49.1745 16.1663H0.825472C0.369435 16.1663 0 15.7968 0 15.3408C0 14.8852 0.369435 14.5153 0.825472 14.5153H49.1745C49.6306 14.5153 50 14.8852 50 15.3408C50 15.7968 49.6306 16.1663 49.1745 16.1663Z" fill="black"/>
<path d="M14.104 12.2162C12.664 12.2162 11.4917 11.0439 11.4917 9.60394C11.4917 8.16351 12.664 6.99163 14.104 6.99163C15.5444 6.99163 16.7163 8.16351 16.7163 9.60394C16.7163 11.0439 15.5444 12.2162 14.104 12.2162ZM14.104 8.64258C13.5742 8.64258 13.1426 9.07374 13.1426 9.60394C13.1426 10.1341 13.5742 10.5653 14.104 10.5653C14.6342 10.5653 15.0653 10.1341 15.0653 9.60394C15.0653 9.07374 14.6342 8.64258 14.104 8.64258Z" fill="black"/>
<path d="M6.07772 12.1909C4.63729 12.1909 3.46542 11.019 3.46542 9.5786C3.46542 8.13817 4.63729 6.9663 6.07772 6.9663C7.51815 6.9663 8.69002 8.13817 8.69002 9.5786C8.69002 11.019 7.51815 12.1909 6.07772 12.1909ZM6.07772 8.61724C5.54798 8.61724 5.11636 9.04886 5.11636 9.5786C5.11636 10.1088 5.54798 10.54 6.07772 10.54C6.60792 10.54 7.03908 10.1088 7.03908 9.5786C7.03908 9.04886 6.60792 8.61724 6.07772 8.61724Z" fill="black"/>
<path d="M22.1302 12.2411C20.6902 12.2411 19.5184 11.0692 19.5184 9.62881C19.5184 8.18884 20.6902 7.01697 22.1302 7.01697C23.5706 7.01697 24.7425 8.18884 24.7425 9.62881C24.7425 11.0692 23.5706 12.2411 22.1302 12.2411ZM22.1302 8.66745C21.6005 8.66745 21.1693 9.09861 21.1693 9.62881C21.1693 10.159 21.6005 10.5902 22.1302 10.5902C22.6604 10.5902 23.0916 10.159 23.0916 9.62881C23.0916 9.09861 22.6604 8.66745 22.1302 8.66745Z" fill="black"/>
</svg>
